<svg xmlns="http://www.w3.org/2000/svg" style="display:none">
  <symbol id="ability-whirlwind_slash" viewBox="0 0 64 64"><path d="M 12 28 Q 16 12 32 12 Q 48 12 52 28" stroke="currentColor" stroke-width="3.5" fill="none" stroke-linejoin="round" stroke-linecap="round"></path> <path d="M 52 36 Q 48 52 32 52 Q 16 52 12 36" stroke="currentColor" stroke-width="3.5" fill="none" stroke-linejoin="round" stroke-linecap="round" stroke-dasharray="3 4"></path> <path d="M 8 24 L 14 28 L 8 32" stroke="currentColor" stroke-width="3.5" fill="none" stroke-linejoin="round" stroke-linecap="round"></path> <path d="M 56 32 L 50 36 L 56 40" stroke="currentColor" stroke-width="3.5" fill="none" stroke-linejoin="round" stroke-linecap="round"></path> <circle cx="32" cy="32" r="4" fill="currentColor"></circle></symbol>
  <symbol id="ability-gap_closer" viewBox="0 0 64 64"><path d="M 6 38 L 38 32 L 30 28 M 38 32 L 30 36" stroke="currentColor" stroke-width="3.5" fill="none" stroke-linejoin="round" stroke-linecap="round"></path> <path d="M 44 18 L 52 10 M 52 10 L 56 14 M 52 10 L 48 6" stroke="currentColor" stroke-width="3.5" fill="none" stroke-linejoin="round" stroke-linecap="round"></path> <rect x="44" y="22" width="3" height="20" fill="currentColor" transform="rotate(-30 45.5 32)"></rect> <path d="M 14 38 L 8 42 M 22 36 L 16 40" stroke="currentColor" stroke-width="3.5" fill="none" stroke-linejoin="round" stroke-linecap="round" stroke-width="2"></path></symbol>
  <symbol id="ability-uppercut" viewBox="0 0 64 64"><path d="M 32 56 L 32 16" stroke="currentColor" stroke-width="3.5" fill="none" stroke-linejoin="round" stroke-linecap="round"></path> <path d="M 22 26 L 32 16 L 42 26" stroke="currentColor" stroke-width="3.5" fill="none" stroke-linejoin="round" stroke-linecap="round"></path> <path d="M 22 38 Q 28 32 38 38" stroke="currentColor" stroke-width="3.5" fill="none" stroke-linejoin="round" stroke-linecap="round" stroke-width="2.5" stroke-dasharray="2 3"></path> <circle cx="32" cy="10" r="4" fill="currentColor"></circle></symbol>
  <symbol id="ability-bleed_strike" viewBox="0 0 64 64"><path d="M 32 8 L 32 40" stroke="currentColor" stroke-width="3.5" fill="none" stroke-linejoin="round" stroke-linecap="round"></path> <path d="M 26 38 L 32 44 L 38 38" stroke="currentColor" stroke-width="3.5" fill="none" stroke-linejoin="round" stroke-linecap="round"></path> <rect x="22" y="40" width="20" height="4" fill="currentColor"></rect> <rect x="29" y="44" width="6" height="12" fill="currentColor"></rect> <circle cx="22" cy="52" r="3" fill="currentColor"></circle> <circle cx="42" cy="50" r="2.5" fill="currentColor"></circle> <circle cx="36" cy="58" r="2" fill="currentColor"></circle></symbol>
  <symbol id="ability-guard_break" viewBox="0 0 64 64"><path d="M 14 18 L 14 38 Q 14 50 32 56 Q 50 50 50 38 L 50 18 Z" stroke="currentColor" stroke-width="3.5" fill="none" stroke-linejoin="round" stroke-linecap="round"></path> <path d="M 22 24 L 42 44 M 42 24 L 22 44" stroke="currentColor" stroke-width="3.5" fill="none" stroke-linejoin="round" stroke-linecap="round" stroke-width="3"></path> <circle cx="32" cy="14" r="3" fill="currentColor"></circle></symbol>
  <symbol id="ability-rending_dash" viewBox="0 0 64 64"><path d="M 8 40 L 32 32 L 28 26 M 32 32 L 28 38" stroke="currentColor" stroke-width="3.5" fill="none" stroke-linejoin="round" stroke-linecap="round"></path> <path d="M 36 16 L 56 14 M 36 22 L 52 22 M 36 28 L 48 30" stroke="currentColor" stroke-width="3.5" fill="none" stroke-linejoin="round" stroke-linecap="round" stroke-width="2.5"></path> <path d="M 40 40 L 56 56 M 46 36 L 56 46" stroke="currentColor" stroke-width="3.5" fill="none" stroke-linejoin="round" stroke-linecap="round" stroke-width="2"></path></symbol>
  <symbol id="ability-piercing_shot" viewBox="0 0 64 64"><path d="M 6 32 L 58 32" stroke="currentColor" stroke-width="3.5" fill="none" stroke-linejoin="round" stroke-linecap="round"></path> <path d="M 50 24 L 58 32 L 50 40" stroke="currentColor" stroke-width="3.5" fill="none" stroke-linejoin="round" stroke-linecap="round"></path> <path d="M 8 24 L 14 32 L 8 40" stroke="currentColor" stroke-width="3.5" fill="none" stroke-linejoin="round" stroke-linecap="round" stroke-width="2.5"></path> <circle cx="22" cy="32" r="3.5" stroke="currentColor" stroke-width="3.5" fill="none" stroke-linejoin="round" stroke-linecap="round" stroke-width="2.5"></circle> <circle cx="36" cy="32" r="3.5" stroke="currentColor" stroke-width="3.5" fill="none" stroke-linejoin="round" stroke-linecap="round" stroke-width="2.5"></circle> <circle cx="50" cy="32" r="3.5" stroke="currentColor" stroke-width="3.5" fill="none" stroke-linejoin="round" stroke-linecap="round" stroke-width="2.5"></circle></symbol>
  <symbol id="ability-volley" viewBox="0 0 64 64"><path d="M 14 8 L 14 28 M 10 24 L 14 28 L 18 24" stroke="currentColor" stroke-width="3.5" fill="none" stroke-linejoin="round" stroke-linecap="round" stroke-width="2.5"></path> <path d="M 24 12 L 24 32 M 20 28 L 24 32 L 28 28" stroke="currentColor" stroke-width="3.5" fill="none" stroke-linejoin="round" stroke-linecap="round" stroke-width="2.5"></path> <path d="M 34 10 L 34 30 M 30 26 L 34 30 L 38 26" stroke="currentColor" stroke-width="3.5" fill="none" stroke-linejoin="round" stroke-linecap="round" stroke-width="2.5"></path> <path d="M 44 14 L 44 34 M 40 30 L 44 34 L 48 30" stroke="currentColor" stroke-width="3.5" fill="none" stroke-linejoin="round" stroke-linecap="round" stroke-width="2.5"></path> <path d="M 54 8 L 54 28 M 50 24 L 54 28 L 58 24" stroke="currentColor" stroke-width="3.5" fill="none" stroke-linejoin="round" stroke-linecap="round" stroke-width="2.5"></path> <ellipse cx="32" cy="48" rx="22" ry="6" stroke="currentColor" stroke-width="3.5" fill="none" stroke-linejoin="round" stroke-linecap="round" stroke-dasharray="3 3"></ellipse></symbol>
  <symbol id="ability-pin_shot" viewBox="0 0 64 64"><path d="M 32 56 L 32 12" stroke="currentColor" stroke-width="3.5" fill="none" stroke-linejoin="round" stroke-linecap="round"></path> <path d="M 24 22 L 32 12 L 40 22" stroke="currentColor" stroke-width="3.5" fill="none" stroke-linejoin="round" stroke-linecap="round"></path> <path d="M 26 56 L 32 50 L 38 56" stroke="currentColor" stroke-width="3.5" fill="none" stroke-linejoin="round" stroke-linecap="round" stroke-width="2.5"></path> <path d="M 18 28 Q 32 22 46 28" stroke="currentColor" stroke-width="3.5" fill="none" stroke-linejoin="round" stroke-linecap="round" stroke-width="2" stroke-dasharray="2 3"></path></symbol>
  <symbol id="ability-snare_trap" viewBox="0 0 64 64"><rect x="10" y="20" width="44" height="28" stroke="currentColor" stroke-width="3.5" fill="none" stroke-linejoin="round" stroke-linecap="round"></rect> <path d="M 10 20 L 54 48 M 54 20 L 10 48" stroke="currentColor" stroke-width="3.5" fill="none" stroke-linejoin="round" stroke-linecap="round" stroke-width="2.5"></path> <circle cx="32" cy="34" r="4" fill="currentColor"></circle> <path d="M 16 14 L 14 8 M 48 14 L 50 8" stroke="currentColor" stroke-width="3.5" fill="none" stroke-linejoin="round" stroke-linecap="round" stroke-width="2"></path></symbol>
  <symbol id="ability-marksman_shot" viewBox="0 0 64 64"><circle cx="32" cy="32" r="20" stroke="currentColor" stroke-width="3.5" fill="none" stroke-linejoin="round" stroke-linecap="round"></circle> <circle cx="32" cy="32" r="10" stroke="currentColor" stroke-width="3.5" fill="none" stroke-linejoin="round" stroke-linecap="round" stroke-width="2.5"></circle> <circle cx="32" cy="32" r="2" fill="currentColor"></circle> <path d="M 32 4 L 32 14 M 32 50 L 32 60 M 4 32 L 14 32 M 50 32 L 60 32" stroke="currentColor" stroke-width="3.5" fill="none" stroke-linejoin="round" stroke-linecap="round" stroke-width="2.5"></path></symbol>
  <symbol id="ability-disengage_shot" viewBox="0 0 64 64"><path d="M 56 32 L 30 32" stroke="currentColor" stroke-width="3.5" fill="none" stroke-linejoin="round" stroke-linecap="round"></path> <path d="M 38 24 L 30 32 L 38 40" stroke="currentColor" stroke-width="3.5" fill="none" stroke-linejoin="round" stroke-linecap="round"></path> <path d="M 8 40 L 8 48 L 24 56 L 28 50 Z" stroke="currentColor" stroke-width="3.5" fill="none" stroke-linejoin="round" stroke-linecap="round" stroke-width="2.5"></path> <path d="M 20 24 L 12 18 M 28 22 L 20 14" stroke="currentColor" stroke-width="3.5" fill="none" stroke-linejoin="round" stroke-linecap="round" stroke-width="2"></path></symbol>
  <symbol id="ability-broadhead" viewBox="0 0 64 64"><path d="M 32 8 L 16 30 L 22 30 L 22 56 L 42 56 L 42 30 L 48 30 Z" stroke="currentColor" stroke-width="3.5" fill="none" stroke-linejoin="round" stroke-linecap="round"></path> <path d="M 32 8 L 22 30 L 42 30 Z" fill="currentColor" fill-opacity="0.4"></path> <path d="M 22 56 L 16 60 M 42 56 L 48 60" stroke="currentColor" stroke-width="3.5" fill="none" stroke-linejoin="round" stroke-linecap="round" stroke-width="2"></path></symbol>
  <symbol id="ability-blast_arrow" viewBox="0 0 64 64"><path d="M 56 32 L 30 32" stroke="currentColor" stroke-width="3.5" fill="none" stroke-linejoin="round" stroke-linecap="round"></path> <path d="M 38 24 L 30 32 L 38 40" stroke="currentColor" stroke-width="3.5" fill="none" stroke-linejoin="round" stroke-linecap="round"></path> <circle cx="20" cy="32" r="14" stroke="currentColor" stroke-width="3.5" fill="none" stroke-linejoin="round" stroke-linecap="round" stroke-dasharray="3 3"></circle> <path d="M 12 24 L 8 20 M 12 40 L 8 44 M 28 24 L 32 20 M 28 40 L 32 44" stroke="currentColor" stroke-width="3.5" fill="none" stroke-linejoin="round" stroke-linecap="round" stroke-width="2.5"></path> <circle cx="20" cy="32" r="5" fill="currentColor"></circle></symbol>
  <symbol id="ability-fireball" viewBox="0 0 64 64"><path d="M 32 8 Q 22 22 24 32 Q 16 30 16 42 Q 16 54 32 56 Q 48 54 48 42 Q 48 30 40 32 Q 42 22 32 8 Z" stroke="currentColor" stroke-width="3.5" fill="none" stroke-linejoin="round" stroke-linecap="round"></path> <path d="M 32 32 Q 28 40 32 48 Q 36 40 32 32" fill="currentColor"></path></symbol>
  <symbol id="ability-flame_wall" viewBox="0 0 64 64"><path d="M 10 20 Q 6 32 10 44 Q 14 36 14 44 Q 18 32 14 20 Q 16 26 18 22" stroke="currentColor" stroke-width="3.5" fill="none" stroke-linejoin="round" stroke-linecap="round"></path> <path d="M 26 16 Q 22 32 26 48 Q 30 38 30 48 Q 34 32 30 16 Q 32 22 34 18" stroke="currentColor" stroke-width="3.5" fill="none" stroke-linejoin="round" stroke-linecap="round"></path> <path d="M 42 14 Q 38 32 42 50 Q 46 38 46 50 Q 50 32 46 14 Q 48 20 50 16" stroke="currentColor" stroke-width="3.5" fill="none" stroke-linejoin="round" stroke-linecap="round"></path> <path d="M 56 22 Q 52 32 56 44 Q 60 36 60 44 Q 64 32 60 22" stroke="currentColor" stroke-width="3.5" fill="none" stroke-linejoin="round" stroke-linecap="round"></path> <line x1="4" y1="54" x2="60" y2="54" stroke="currentColor" stroke-width="3.5" fill="none" stroke-linejoin="round" stroke-linecap="round" stroke-width="2"></line></symbol>
  <symbol id="ability-ignite" viewBox="0 0 64 64"><circle cx="32" cy="40" r="14" stroke="currentColor" stroke-width="3.5" fill="none" stroke-linejoin="round" stroke-linecap="round" stroke-dasharray="3 3"></circle> <path d="M 32 14 Q 26 24 28 32 Q 22 30 24 38 Q 28 46 32 44 Q 36 46 40 38 Q 42 30 36 32 Q 38 24 32 14 Z" stroke="currentColor" stroke-width="3.5" fill="none" stroke-linejoin="round" stroke-linecap="round"></path> <path d="M 8 8 L 14 14 M 56 8 L 50 14 M 8 56 L 14 50 M 56 56 L 50 50" stroke="currentColor" stroke-width="3.5" fill="none" stroke-linejoin="round" stroke-linecap="round" stroke-width="2"></path></symbol>
  <symbol id="ability-meteor" viewBox="0 0 64 64"><circle cx="44" cy="20" r="10" stroke="currentColor" stroke-width="3.5" fill="none" stroke-linejoin="round" stroke-linecap="round"></circle> <circle cx="44" cy="20" r="5" fill="currentColor"></circle> <path d="M 36 28 L 12 52" stroke="currentColor" stroke-width="3.5" fill="none" stroke-linejoin="round" stroke-linecap="round" stroke-width="3"></path> <path d="M 40 24 L 8 48" stroke="currentColor" stroke-width="3.5" fill="none" stroke-linejoin="round" stroke-linecap="round" stroke-width="2"></path> <path d="M 32 32 L 16 56" stroke="currentColor" stroke-width="3.5" fill="none" stroke-linejoin="round" stroke-linecap="round" stroke-width="2"></path> <path d="M 36 12 L 50 4 M 52 14 L 60 8" stroke="currentColor" stroke-width="3.5" fill="none" stroke-linejoin="round" stroke-linecap="round" stroke-width="2"></path></symbol>
  <symbol id="ability-eruption" viewBox="0 0 64 64"><path d="M 32 56 L 32 18" stroke="currentColor" stroke-width="3.5" fill="none" stroke-linejoin="round" stroke-linecap="round"></path> <path d="M 24 28 L 32 18 L 40 28" stroke="currentColor" stroke-width="3.5" fill="none" stroke-linejoin="round" stroke-linecap="round"></path> <path d="M 16 50 Q 22 38 28 50 Q 32 36 36 50 Q 42 38 48 50" stroke="currentColor" stroke-width="3.5" fill="none" stroke-linejoin="round" stroke-linecap="round"></path> <circle cx="32" cy="12" r="4" fill="currentColor"></circle> <line x1="8" y1="58" x2="56" y2="58" stroke="currentColor" stroke-width="3.5" fill="none" stroke-linejoin="round" stroke-linecap="round" stroke-width="2"></line></symbol>
  <symbol id="ability-fire_blink" viewBox="0 0 64 64"><path d="M 10 50 Q 14 32 28 28 Q 32 28 32 32 Q 36 36 40 28 Q 50 26 54 14" stroke="currentColor" stroke-width="3.5" fill="none" stroke-linejoin="round" stroke-linecap="round"></path> <path d="M 48 14 L 54 14 L 54 20" stroke="currentColor" stroke-width="3.5" fill="none" stroke-linejoin="round" stroke-linecap="round"></path> <path d="M 14 56 Q 18 40 26 38" stroke="currentColor" stroke-width="3.5" fill="none" stroke-linejoin="round" stroke-linecap="round" stroke-width="2" stroke-dasharray="3 3"></path> <circle cx="32" cy="32" r="4" fill="currentColor"></circle></symbol>
  <symbol id="ability-frost_bolt" viewBox="0 0 64 64"><path d="M 6 32 L 50 32" stroke="currentColor" stroke-width="3.5" fill="none" stroke-linejoin="round" stroke-linecap="round"></path> <path d="M 42 24 L 50 32 L 42 40" stroke="currentColor" stroke-width="3.5" fill="none" stroke-linejoin="round" stroke-linecap="round"></path> <path d="M 22 26 L 18 22 M 22 38 L 18 42 M 32 24 L 32 18 M 32 40 L 32 46" stroke="currentColor" stroke-width="3.5" fill="none" stroke-linejoin="round" stroke-linecap="round" stroke-width="2"></path> <path d="M 54 28 L 58 32 L 54 36" stroke="currentColor" stroke-width="3.5" fill="none" stroke-linejoin="round" stroke-linecap="round" stroke-width="2"></path></symbol>
  <symbol id="ability-ice_wall" viewBox="0 0 64 64"><path d="M 8 52 L 14 24 L 18 36 L 22 16 L 28 36 L 32 22 L 36 36 L 42 16 L 46 36 L 50 24 L 56 52 Z" stroke="currentColor" stroke-width="3.5" fill="none" stroke-linejoin="round" stroke-linecap="round"></path> <path d="M 14 24 L 14 52 M 22 16 L 22 52 M 32 22 L 32 52 M 42 16 L 42 52 M 50 24 L 50 52" stroke="currentColor" stroke-width="3.5" fill="none" stroke-linejoin="round" stroke-linecap="round" stroke-width="2"></path></symbol>
  <symbol id="ability-blizzard" viewBox="0 0 64 64"><circle cx="32" cy="32" r="22" stroke="currentColor" stroke-width="3.5" fill="none" stroke-linejoin="round" stroke-linecap="round" stroke-dasharray="4 4"></circle> <g stroke="currentColor" stroke-width="3.5" fill="none" stroke-linejoin="round" stroke-linecap="round" stroke-width="2.5"> <line x1="32" y1="16" x2="32" y2="48"></line> <line x1="18" y1="24" x2="46" y2="40"></line> <line x1="18" y1="40" x2="46" y2="24"></line> <path d="M 32 16 L 28 20 M 32 16 L 36 20 M 32 48 L 28 44 M 32 48 L 36 44"></path> <path d="M 18 24 L 22 22 M 18 24 L 20 28 M 46 40 L 42 42 M 46 40 L 44 36"></path> <path d="M 18 40 L 22 42 M 18 40 L 20 36 M 46 24 L 42 22 M 46 24 L 44 28"></path> </g></symbol>
  <symbol id="ability-freeze_target" viewBox="0 0 64 64"><rect x="14" y="14" width="36" height="36" stroke="currentColor" stroke-width="3.5" fill="none" stroke-linejoin="round" stroke-linecap="round"></rect> <path d="M 14 14 L 50 50 M 50 14 L 14 50" stroke="currentColor" stroke-width="3.5" fill="none" stroke-linejoin="round" stroke-linecap="round" stroke-width="2.5"></path> <path d="M 24 14 L 14 24 M 40 14 L 14 40 M 50 24 L 24 50 M 50 40 L 40 50" stroke="currentColor" stroke-width="3.5" fill="none" stroke-linejoin="round" stroke-linecap="round" stroke-width="2"></path> <circle cx="32" cy="32" r="4" fill="currentColor"></circle></symbol>
  <symbol id="ability-frost_pillar" viewBox="0 0 64 64"><path d="M 24 56 L 28 28 L 32 16 L 36 28 L 40 56 Z" stroke="currentColor" stroke-width="3.5" fill="none" stroke-linejoin="round" stroke-linecap="round"></path> <path d="M 32 16 L 32 56" stroke="currentColor" stroke-width="3.5" fill="none" stroke-linejoin="round" stroke-linecap="round" stroke-width="2"></path> <path d="M 28 28 L 36 28 M 26 38 L 38 38 M 25 48 L 39 48" stroke="currentColor" stroke-width="3.5" fill="none" stroke-linejoin="round" stroke-linecap="round" stroke-width="1.5"></path> <path d="M 32 16 L 26 8 M 32 16 L 38 8" stroke="currentColor" stroke-width="3.5" fill="none" stroke-linejoin="round" stroke-linecap="round" stroke-width="2"></path> <circle cx="32" cy="8" r="2.5" fill="currentColor"></circle></symbol>
  <symbol id="ability-chain_bolt" viewBox="0 0 64 64"><polygon points="20,8 12,30 22,30 16,52 32,28 22,28 28,8" stroke="currentColor" stroke-width="3.5" fill="none" stroke-linejoin="round" stroke-linecap="round"></polygon> <polygon points="20,8 12,30 22,30 16,52 32,28 22,28 28,8" fill="currentColor" fill-opacity="0.3"></polygon> <polyline points="36,20 44,12 40,24 50,16" stroke="currentColor" stroke-width="3.5" fill="none" stroke-linejoin="round" stroke-linecap="round" stroke-width="2"></polyline> <polyline points="38,40 48,36 42,46 54,42" stroke="currentColor" stroke-width="3.5" fill="none" stroke-linejoin="round" stroke-linecap="round" stroke-width="2"></polyline></symbol>
  <symbol id="ability-thunder_clap" viewBox="0 0 64 64"><circle cx="32" cy="32" r="10" fill="currentColor"></circle> <g stroke="currentColor" stroke-width="3.5" fill="none" stroke-linejoin="round" stroke-linecap="round"> <polyline points="32,4 26,18 36,14"></polyline> <polyline points="32,60 38,46 28,50"></polyline> <polyline points="4,32 18,38 14,28"></polyline> <polyline points="60,32 46,26 50,36"></polyline> <polyline points="10,10 22,18 16,22"></polyline> <polyline points="54,54 42,46 48,42"></polyline> <polyline points="10,54 22,46 16,42"></polyline> <polyline points="54,10 42,18 48,22"></polyline> </g></symbol>
  <symbol id="ability-storm_field" viewBox="0 0 64 64"><path d="M 12 24 Q 10 14 22 14 Q 28 8 36 14 Q 50 12 50 24 Q 56 26 54 32 L 12 32 Q 6 26 12 24 Z" stroke="currentColor" stroke-width="3.5" fill="none" stroke-linejoin="round" stroke-linecap="round"></path> <polyline points="20,34 16,46 24,42 20,54" stroke="currentColor" stroke-width="3.5" fill="none" stroke-linejoin="round" stroke-linecap="round" stroke-width="2.5"></polyline> <polyline points="34,34 30,46 38,42 34,54" stroke="currentColor" stroke-width="3.5" fill="none" stroke-linejoin="round" stroke-linecap="round" stroke-width="2.5"></polyline> <polyline points="48,34 44,46 52,42 48,54" stroke="currentColor" stroke-width="3.5" fill="none" stroke-linejoin="round" stroke-linecap="round" stroke-width="2.5"></polyline></symbol>
  <symbol id="ability-lightning_dash" viewBox="0 0 64 64"><polyline points="8,16 22,16 18,28 32,28 26,40 44,40 38,52 56,52" stroke="currentColor" stroke-width="3.5" fill="none" stroke-linejoin="round" stroke-linecap="round"></polyline> <polyline points="50,46 56,52 50,58" stroke="currentColor" stroke-width="3.5" fill="none" stroke-linejoin="round" stroke-linecap="round"></polyline> <circle cx="14" cy="16" r="3" fill="currentColor"></circle></symbol>
  <symbol id="ability-arc_lift" viewBox="0 0 64 64"><polyline points="14,56 22,42 18,40 28,26 24,24 34,8" stroke="currentColor" stroke-width="3.5" fill="none" stroke-linejoin="round" stroke-linecap="round"></polyline> <polyline points="30,12 34,8 38,16" stroke="currentColor" stroke-width="3.5" fill="none" stroke-linejoin="round" stroke-linecap="round"></polyline> <path d="M 18 56 Q 32 52 46 56" stroke="currentColor" stroke-width="3.5" fill="none" stroke-linejoin="round" stroke-linecap="round" stroke-width="2" stroke-dasharray="3 3"></path></symbol>
  <symbol id="ability-shadow_bolt" viewBox="0 0 64 64"><circle cx="32" cy="32" r="18" stroke="currentColor" stroke-width="3.5" fill="none" stroke-linejoin="round" stroke-linecap="round"></circle> <circle cx="32" cy="32" r="11" fill="currentColor"></circle> <path d="M 14 14 L 8 8 M 50 14 L 56 8 M 14 50 L 8 56 M 50 50 L 56 56" stroke="currentColor" stroke-width="3.5" fill="none" stroke-linejoin="round" stroke-linecap="round" stroke-width="2"></path> <path d="M 24 24 Q 28 28 32 24" stroke="currentColor" stroke-width="3.5" fill="none" stroke-linejoin="round" stroke-linecap="round" stroke-width="1.5" stroke="#0c0d10"></path></symbol>
  <symbol id="ability-curse_of_weakness" viewBox="0 0 64 64"><path d="M 18 18 Q 18 8 32 8 Q 46 8 46 18 L 46 36 Q 46 44 38 46 L 40 56 L 24 56 L 26 46 Q 18 44 18 36 Z" stroke="currentColor" stroke-width="3.5" fill="none" stroke-linejoin="round" stroke-linecap="round"></path> <circle cx="24" cy="26" r="3" fill="currentColor"></circle> <circle cx="40" cy="26" r="3" fill="currentColor"></circle> <path d="M 24 38 Q 32 34 40 38" stroke="currentColor" stroke-width="3.5" fill="none" stroke-linejoin="round" stroke-linecap="round" stroke-width="2"></path> <path d="M 28 42 L 30 46 M 36 42 L 34 46" stroke="currentColor" stroke-width="3.5" fill="none" stroke-linejoin="round" stroke-linecap="round" stroke-width="1.5"></path></symbol>
  <symbol id="ability-life_drain" viewBox="0 0 64 64"><circle cx="14" cy="32" r="8" stroke="currentColor" stroke-width="3.5" fill="none" stroke-linejoin="round" stroke-linecap="round"></circle> <circle cx="50" cy="32" r="8" fill="currentColor"></circle> <path d="M 22 32 L 42 32" stroke="currentColor" stroke-width="3.5" fill="none" stroke-linejoin="round" stroke-linecap="round" stroke-width="4" stroke-dasharray="4 3"></path> <path d="M 38 26 L 44 32 L 38 38" stroke="currentColor" stroke-width="3.5" fill="none" stroke-linejoin="round" stroke-linecap="round" stroke-width="2.5"></path> <path d="M 26 26 L 20 32 L 26 38" stroke="currentColor" stroke-width="3.5" fill="none" stroke-linejoin="round" stroke-linecap="round" stroke-width="2"></path></symbol>
  <symbol id="ability-dark_barrier" viewBox="0 0 64 64"><path d="M 32 6 L 54 18 L 54 38 Q 54 50 32 58 Q 10 50 10 38 L 10 18 Z" stroke="currentColor" stroke-width="3.5" fill="none" stroke-linejoin="round" stroke-linecap="round"></path> <path d="M 32 6 L 54 18 L 54 38 Q 54 50 32 58 Q 10 50 10 38 L 10 18 Z" fill="currentColor" fill-opacity="0.2"></path> <path d="M 22 32 L 32 22 L 42 32 L 32 42 Z" fill="currentColor"></path></symbol>
  <symbol id="ability-void_spike" viewBox="0 0 64 64"><path d="M 32 8 L 28 32 L 24 28 L 20 56 L 32 50 L 44 56 L 40 28 L 36 32 Z" stroke="currentColor" stroke-width="3.5" fill="none" stroke-linejoin="round" stroke-linecap="round"></path> <path d="M 32 8 L 32 50" stroke="currentColor" stroke-width="3.5" fill="none" stroke-linejoin="round" stroke-linecap="round" stroke-width="2"></path> <circle cx="32" cy="6" r="3" fill="currentColor"></circle></symbol>
  <symbol id="ability-poison_dart" viewBox="0 0 64 64"><path d="M 6 32 L 38 32" stroke="currentColor" stroke-width="3.5" fill="none" stroke-linejoin="round" stroke-linecap="round"></path> <polygon points="38,24 50,32 38,40" stroke="currentColor" stroke-width="3.5" fill="none" stroke-linejoin="round" stroke-linecap="round"></polygon> <polygon points="38,24 50,32 38,40" fill="currentColor" fill-opacity="0.4"></polygon> <path d="M 6 32 L 12 28 L 12 36 Z" fill="currentColor"></path> <circle cx="48" cy="46" r="3" fill="currentColor"></circle> <circle cx="54" cy="52" r="2" fill="currentColor"></circle> <circle cx="58" cy="46" r="2" fill="currentColor"></circle></symbol>
  <symbol id="ability-thorn_field" viewBox="0 0 64 64"><circle cx="32" cy="32" r="22" stroke="currentColor" stroke-width="3.5" fill="none" stroke-linejoin="round" stroke-linecap="round" stroke-dasharray="2 3"></circle> <g stroke="currentColor" stroke-width="3.5" fill="none" stroke-linejoin="round" stroke-linecap="round" stroke-width="2.5"> <path d="M 32 12 L 32 4 M 28 8 L 32 4 L 36 8"></path> <path d="M 32 52 L 32 60 M 28 56 L 32 60 L 36 56"></path> <path d="M 12 32 L 4 32 M 8 28 L 4 32 L 8 36"></path> <path d="M 52 32 L 60 32 M 56 28 L 60 32 L 56 36"></path> <path d="M 20 20 L 14 14 M 18 14 L 14 14 L 14 18"></path> <path d="M 44 20 L 50 14 M 46 14 L 50 14 L 50 18"></path> <path d="M 20 44 L 14 50 M 18 50 L 14 50 L 14 46"></path> <path d="M 44 44 L 50 50 M 46 50 L 50 50 L 50 46"></path> </g> <circle cx="32" cy="32" r="6" fill="currentColor"></circle></symbol>
  <symbol id="ability-entangle" viewBox="0 0 64 64"><path d="M 20 56 Q 16 40 24 32 Q 32 24 28 8" stroke="currentColor" stroke-width="3.5" fill="none" stroke-linejoin="round" stroke-linecap="round"></path> <path d="M 44 56 Q 48 40 40 32 Q 32 24 36 8" stroke="currentColor" stroke-width="3.5" fill="none" stroke-linejoin="round" stroke-linecap="round"></path> <path d="M 24 32 Q 32 30 40 32" stroke="currentColor" stroke-width="3.5" fill="none" stroke-linejoin="round" stroke-linecap="round" stroke-width="2"></path> <path d="M 22 18 L 18 14 M 42 18 L 46 14" stroke="currentColor" stroke-width="3.5" fill="none" stroke-linejoin="round" stroke-linecap="round" stroke-width="2"></path> <circle cx="28" cy="8" r="2.5" fill="currentColor"></circle> <circle cx="36" cy="8" r="2.5" fill="currentColor"></circle></symbol>
  <symbol id="ability-healing_totem" viewBox="0 0 64 64"><rect x="26" y="32" width="12" height="24" stroke="currentColor" stroke-width="3.5" fill="none" stroke-linejoin="round" stroke-linecap="round"></rect> <path d="M 22 28 L 32 12 L 42 28 Z" stroke="currentColor" stroke-width="3.5" fill="none" stroke-linejoin="round" stroke-linecap="round"></path> <path d="M 22 28 L 32 12 L 42 28 Z" fill="currentColor" fill-opacity="0.3"></path> <path d="M 32 18 L 32 38" stroke="currentColor" stroke-width="3.5" fill="none" stroke-linejoin="round" stroke-linecap="round" stroke-width="2.5"></path> <path d="M 26 24 L 38 24" stroke="currentColor" stroke-width="3.5" fill="none" stroke-linejoin="round" stroke-linecap="round" stroke-width="2.5"></path> <path d="M 14 44 Q 20 40 26 44 M 38 44 Q 44 40 50 44" stroke="currentColor" stroke-width="3.5" fill="none" stroke-linejoin="round" stroke-linecap="round" stroke-width="2" stroke-dasharray="2 3"></path></symbol>
  <symbol id="ability-root_upthrow" viewBox="0 0 64 64"><path d="M 32 8 L 32 32" stroke="currentColor" stroke-width="3.5" fill="none" stroke-linejoin="round" stroke-linecap="round"></path> <path d="M 22 24 L 32 14 L 42 24" stroke="currentColor" stroke-width="3.5" fill="none" stroke-linejoin="round" stroke-linecap="round"></path> <path d="M 32 32 Q 20 36 14 56 M 32 32 Q 44 36 50 56 M 32 32 Q 26 44 24 56 M 32 32 Q 38 44 40 56" stroke="currentColor" stroke-width="3.5" fill="none" stroke-linejoin="round" stroke-linecap="round" stroke-width="2.5"></path> <circle cx="32" cy="6" r="3" fill="currentColor"></circle> <line x1="8" y1="58" x2="56" y2="58" stroke="currentColor" stroke-width="3.5" fill="none" stroke-linejoin="round" stroke-linecap="round" stroke-width="2"></line></symbol>
  <symbol id="ability-vine_dash" viewBox="0 0 64 64"><path d="M 8 40 Q 16 30 24 38 Q 32 46 40 36 Q 48 26 52 32" stroke="currentColor" stroke-width="3.5" fill="none" stroke-linejoin="round" stroke-linecap="round"></path> <path d="M 44 28 L 52 32 L 50 40" stroke="currentColor" stroke-width="3.5" fill="none" stroke-linejoin="round" stroke-linecap="round"></path> <circle cx="16" cy="32" r="2.5" fill="currentColor"></circle> <circle cx="32" cy="44" r="2.5" fill="currentColor"></circle> <circle cx="44" cy="32" r="2.5" fill="currentColor"></circle></symbol>
  <symbol id="ability-transfer_hp_mana" viewBox="0 0 64 64">{/* heart */} <path d="M 16 16 Q 8 16 8 24 Q 8 32 16 40 L 16 40 Q 24 32 24 24 Q 24 16 16 16 Z M 16 16 Q 16 12 20 14" fill="#ff6f7d"></path> {/* arrow */} <path d="M 30 32 L 42 32" stroke="#c8d0ff" stroke-width="3.5" fill="none" stroke-linejoin="round" stroke-linecap="round"></path> <path d="M 38 26 L 44 32 L 38 38" stroke="#c8d0ff" stroke-width="3.5" fill="none" stroke-linejoin="round" stroke-linecap="round"></path> {/* mana drop */} <path d="M 52 16 Q 60 28 56 38 Q 50 44 44 38 Q 40 28 48 16 Q 50 14 52 16 Z" fill="#68a0ff"></path></symbol>
  <symbol id="ability-transfer_mana_stam" viewBox="0 0 64 64"><path d="M 12 16 Q 20 28 16 38 Q 10 44 4 38 Q 0 28 8 16 Q 10 14 12 16 Z" fill="#68a0ff"></path> <path d="M 26 32 L 38 32" stroke="#c8d0ff" stroke-width="3.5" fill="none" stroke-linejoin="round" stroke-linecap="round"></path> <path d="M 34 26 L 40 32 L 34 38" stroke="#c8d0ff" stroke-width="3.5" fill="none" stroke-linejoin="round" stroke-linecap="round"></path> <polygon points="50,14 42,32 50,32 46,52 60,30 52,30 56,14" fill="#ffe05a"></polygon></symbol>
  <symbol id="ability-transfer_stam_hp" viewBox="0 0 64 64"><polygon points="20,14 12,32 20,32 16,52 30,30 22,30 26,14" fill="#ffe05a"></polygon> <path d="M 32 32 L 44 32" stroke="#c8d0ff" stroke-width="3.5" fill="none" stroke-linejoin="round" stroke-linecap="round"></path> <path d="M 40 26 L 46 32 L 40 38" stroke="#c8d0ff" stroke-width="3.5" fill="none" stroke-linejoin="round" stroke-linecap="round"></path> <path d="M 50 16 Q 42 16 42 24 Q 42 32 50 40 L 50 40 Q 58 32 58 24 Q 58 16 50 16 Z" fill="#ff6f7d"></path></symbol>
  <symbol id="ability-self_heal_potion" viewBox="0 0 64 64"><rect x="22" y="6" width="20" height="8" stroke="currentColor" stroke-width="3.5" fill="none" stroke-linejoin="round" stroke-linecap="round"></rect> <path d="M 18 14 L 18 56 Q 18 60 22 60 L 42 60 Q 46 60 46 56 L 46 14 Z" stroke="currentColor" stroke-width="3.5" fill="none" stroke-linejoin="round" stroke-linecap="round"></path> <path d="M 18 36 L 18 56 Q 18 60 22 60 L 42 60 Q 46 60 46 56 L 46 36 Z" fill="currentColor" fill-opacity="0.4"></path> <path d="M 32 20 L 32 34 M 24 27 L 40 27" stroke="currentColor" stroke-width="3.5" fill="none" stroke-linejoin="round" stroke-linecap="round" stroke-width="3"></path></symbol>
  <symbol id="ability-quick_dash" viewBox="0 0 64 64"><path d="M 24 14 L 44 32 L 24 50" stroke="currentColor" stroke-width="3.5" fill="none" stroke-linejoin="round" stroke-linecap="round" stroke-width="4"></path> <path d="M 8 18 L 20 18 M 4 32 L 18 32 M 8 46 L 20 46" stroke="currentColor" stroke-width="3.5" fill="none" stroke-linejoin="round" stroke-linecap="round" stroke-width="3"></path></symbol>
  <symbol id="ability-mark_target" viewBox="0 0 64 64"><circle cx="32" cy="32" r="20" stroke="currentColor" stroke-width="3.5" fill="none" stroke-linejoin="round" stroke-linecap="round"></circle> <circle cx="32" cy="32" r="12" stroke="currentColor" stroke-width="3.5" fill="none" stroke-linejoin="round" stroke-linecap="round" stroke-width="2.5"></circle> <circle cx="32" cy="32" r="4" fill="currentColor"></circle> <path d="M 32 4 L 32 12 M 32 52 L 32 60 M 4 32 L 12 32 M 52 32 L 60 32" stroke="currentColor" stroke-width="3.5" fill="none" stroke-linejoin="round" stroke-linecap="round" stroke-width="2.5"></path></symbol>
  <symbol id="ability-cleanse_surge" viewBox="0 0 64 64"><path d="M 14 32 Q 14 16 32 16 L 38 16 L 32 10 M 38 16 L 32 22" stroke="currentColor" stroke-width="3.5" fill="none" stroke-linejoin="round" stroke-linecap="round"></path> <path d="M 50 32 Q 50 48 32 48 L 26 48 L 32 54 M 26 48 L 32 42" stroke="currentColor" stroke-width="3.5" fill="none" stroke-linejoin="round" stroke-linecap="round"></path> <circle cx="32" cy="32" r="5" fill="currentColor"></circle></symbol>
  <symbol id="ability-barrier" viewBox="0 0 64 64"><circle cx="32" cy="32" r="22" stroke="currentColor" stroke-width="3.5" fill="none" stroke-linejoin="round" stroke-linecap="round" stroke-dasharray="4 3"></circle> <circle cx="32" cy="32" r="15" stroke="currentColor" stroke-width="3.5" fill="none" stroke-linejoin="round" stroke-linecap="round"></circle> <path d="M 32 22 L 32 42 M 22 32 L 42 32" stroke="currentColor" stroke-width="3.5" fill="none" stroke-linejoin="round" stroke-linecap="round" stroke-width="2"></path></symbol>
  <symbol id="ability-energize" viewBox="0 0 64 64"><rect x="14" y="18" width="32" height="28" stroke="currentColor" stroke-width="3.5" fill="none" stroke-linejoin="round" stroke-linecap="round"></rect> <rect x="46" y="26" width="6" height="12" stroke="currentColor" stroke-width="3.5" fill="none" stroke-linejoin="round" stroke-linecap="round"></rect> <polygon points="28,22 22,34 30,34 26,42 38,30 32,30 36,22" fill="currentColor"></polygon></symbol>
  <symbol id="ability-phase_shift" viewBox="0 0 64 64"><ellipse cx="32" cy="14" rx="6" ry="6" stroke="currentColor" stroke-width="3.5" fill="none" stroke-linejoin="round" stroke-linecap="round" stroke-dasharray="2 3"></ellipse> <path d="M 32 22 L 32 42" stroke="currentColor" stroke-width="3.5" fill="none" stroke-linejoin="round" stroke-linecap="round" stroke-dasharray="2 3"></path> <path d="M 24 30 L 40 30" stroke="currentColor" stroke-width="3.5" fill="none" stroke-linejoin="round" stroke-linecap="round" stroke-dasharray="2 3"></path> <path d="M 32 42 L 24 56 M 32 42 L 40 56" stroke="currentColor" stroke-width="3.5" fill="none" stroke-linejoin="round" stroke-linecap="round" stroke-dasharray="2 3"></path></symbol>
  <symbol id="ability-smoke_screen" viewBox="0 0 64 64"><ellipse cx="22" cy="38" rx="14" ry="10" fill="currentColor" fill-opacity="0.4"></ellipse> <ellipse cx="40" cy="34" rx="14" ry="10" fill="currentColor" fill-opacity="0.4"></ellipse> <ellipse cx="32" cy="46" rx="16" ry="8" stroke="currentColor" stroke-width="3.5" fill="none" stroke-linejoin="round" stroke-linecap="round"></ellipse> <ellipse cx="22" cy="38" rx="14" ry="10" stroke="currentColor" stroke-width="3.5" fill="none" stroke-linejoin="round" stroke-linecap="round"></ellipse> <ellipse cx="40" cy="34" rx="14" ry="10" stroke="currentColor" stroke-width="3.5" fill="none" stroke-linejoin="round" stroke-linecap="round"></ellipse> <circle cx="20" cy="20" r="2" fill="currentColor"></circle> <circle cx="32" cy="14" r="2" fill="currentColor"></circle> <circle cx="44" cy="18" r="2" fill="currentColor"></circle></symbol>
  <symbol id="element-fire" viewBox="0 0 64 64"><path d="M 32 6 Q 22 22 24 32 Q 16 30 16 42 Q 16 56 32 58 Q 48 56 48 42 Q 48 30 40 32 Q 42 22 32 6 Z" stroke="currentColor" stroke-width="3.5" fill="none" stroke-linejoin="round" stroke-linecap="round"></path> <path d="M 32 30 Q 26 40 32 50 Q 38 40 32 30" fill="currentColor"></path></symbol>
  <symbol id="element-ice" viewBox="0 0 64 64"><g stroke="currentColor" stroke-width="3.5" fill="none" stroke-linejoin="round" stroke-linecap="round" stroke-width="3"> <line x1="32" y1="4" x2="32" y2="60"></line> <line x1="8" y1="18" x2="56" y2="46"></line> <line x1="8" y1="46" x2="56" y2="18"></line> <path d="M 32 4 L 26 12 M 32 4 L 38 12"></path> <path d="M 32 60 L 26 52 M 32 60 L 38 52"></path> <path d="M 8 18 L 16 16 M 8 18 L 10 26"></path> <path d="M 56 46 L 48 48 M 56 46 L 54 38"></path> <path d="M 8 46 L 16 48 M 8 46 L 10 38"></path> <path d="M 56 18 L 48 16 M 56 18 L 54 26"></path> </g></symbol>
  <symbol id="element-lightning" viewBox="0 0 64 64"><polygon points="38,4 12,32 26,32 22,60 50,28 34,28 42,4" fill="currentColor"></polygon></symbol>
  <symbol id="element-dark" viewBox="0 0 64 64"><circle cx="32" cy="32" r="22" stroke="currentColor" stroke-width="3.5" fill="none" stroke-linejoin="round" stroke-linecap="round"></circle> <path d="M 40 12 A 20 20 0 1 0 40 52 A 16 16 0 1 1 40 12 Z" fill="currentColor"></path></symbol>
  <symbol id="element-nature" viewBox="0 0 64 64"><path d="M 32 58 Q 32 30 16 18 Q 22 38 32 58" stroke="currentColor" stroke-width="3.5" fill="none" stroke-linejoin="round" stroke-linecap="round"></path> <path d="M 32 58 Q 32 30 48 18 Q 42 38 32 58" stroke="currentColor" stroke-width="3.5" fill="none" stroke-linejoin="round" stroke-linecap="round"></path> <path d="M 22 10 Q 32 4 42 10 Q 40 22 32 26 Q 24 22 22 10 Z" fill="currentColor"></path></symbol>
  <symbol id="weapon-sword" viewBox="0 0 64 64"><rect x="29" y="8" width="6" height="36" fill="currentColor"></rect> <rect x="18" y="42" width="28" height="4" fill="currentColor"></rect> <rect x="29" y="46" width="6" height="10" fill="currentColor"></rect> <circle cx="32" cy="58" r="3" fill="currentColor"></circle> <path d="M 32 8 L 28 14 L 32 12 L 36 14 Z" fill="#fff"></path></symbol>
  <symbol id="weapon-bow" viewBox="0 0 64 64"><path d="M 18 12 Q 50 32 18 52" stroke="currentColor" stroke-width="3.5" fill="none" stroke-linejoin="round" stroke-linecap="round" stroke-width="4"></path> <line x1="18" y1="12" x2="18" y2="52" stroke="currentColor" stroke-width="3.5" fill="none" stroke-linejoin="round" stroke-linecap="round" stroke-width="2"></line> <line x1="6" y1="32" x2="50" y2="32" stroke="currentColor" stroke-width="3.5" fill="none" stroke-linejoin="round" stroke-linecap="round" stroke-width="2.5"></line> <path d="M 44 26 L 50 32 L 44 38" stroke="currentColor" stroke-width="3.5" fill="none" stroke-linejoin="round" stroke-linecap="round" stroke-width="2.5"></path></symbol>
  <symbol id="weapon-staff" viewBox="0 0 64 64"><rect x="30" y="20" width="4" height="40" fill="currentColor"></rect> <circle cx="32" cy="14" r="9" stroke="currentColor" stroke-width="3.5" fill="none" stroke-linejoin="round" stroke-linecap="round"></circle> <circle cx="32" cy="14" r="5" fill="currentColor"></circle> <path d="M 32 4 L 28 8 M 32 4 L 36 8" stroke="currentColor" stroke-width="3.5" fill="none" stroke-linejoin="round" stroke-linecap="round" stroke-width="2"></path></symbol>
  <symbol id="status-burn" viewBox="0 0 64 64"><path d="M 32 8 Q 22 22 24 32 Q 16 30 16 42 Q 16 54 32 56 Q 48 54 48 42 Q 48 30 40 32 Q 42 22 32 8 Z" stroke="currentColor" stroke-width="3.5" fill="none" stroke-linejoin="round" stroke-linecap="round"></path> <path d="M 32 32 Q 28 40 32 48 Q 36 40 32 32" fill="currentColor"></path></symbol>
  <symbol id="status-chill" viewBox="0 0 64 64"><g stroke="currentColor" stroke-width="3.5" fill="none" stroke-linejoin="round" stroke-linecap="round" stroke-width="3"> <line x1="32" y1="4" x2="32" y2="60"></line> <line x1="8" y1="18" x2="56" y2="46"></line> <line x1="8" y1="46" x2="56" y2="18"></line> <path d="M 32 4 L 26 12 M 32 4 L 38 12"></path> <path d="M 32 60 L 26 52 M 32 60 L 38 52"></path> <path d="M 8 18 L 16 16 M 8 18 L 10 26"></path> <path d="M 56 46 L 48 48 M 56 46 L 54 38"></path> <path d="M 8 46 L 16 48 M 8 46 L 10 38"></path> <path d="M 56 18 L 48 16 M 56 18 L 54 26"></path> </g></symbol>
  <symbol id="status-freeze" viewBox="0 0 64 64"><rect x="14" y="14" width="36" height="36" stroke="currentColor" stroke-width="3.5" fill="none" stroke-linejoin="round" stroke-linecap="round"></rect> <path d="M 14 14 L 50 50 M 50 14 L 14 50" stroke="currentColor" stroke-width="3.5" fill="none" stroke-linejoin="round" stroke-linecap="round" stroke-width="2.5"></path> <path d="M 24 14 L 14 24 M 40 14 L 14 40 M 50 24 L 24 50 M 50 40 L 40 50" stroke="currentColor" stroke-width="3.5" fill="none" stroke-linejoin="round" stroke-linecap="round" stroke-width="2"></path> <circle cx="32" cy="32" r="4" fill="currentColor"></circle></symbol>
  <symbol id="status-curse" viewBox="0 0 64 64"><path d="M 18 18 Q 18 8 32 8 Q 46 8 46 18 L 46 36 Q 46 44 38 46 L 40 56 L 24 56 L 26 46 Q 18 44 18 36 Z" stroke="currentColor" stroke-width="3.5" fill="none" stroke-linejoin="round" stroke-linecap="round"></path> <circle cx="24" cy="26" r="3" fill="currentColor"></circle> <circle cx="40" cy="26" r="3" fill="currentColor"></circle> <path d="M 24 38 Q 32 34 40 38" stroke="currentColor" stroke-width="3.5" fill="none" stroke-linejoin="round" stroke-linecap="round" stroke-width="2"></path> <path d="M 28 42 L 30 46 M 36 42 L 34 46" stroke="currentColor" stroke-width="3.5" fill="none" stroke-linejoin="round" stroke-linecap="round" stroke-width="1.5"></path></symbol>
  <symbol id="status-mark" viewBox="0 0 64 64"><circle cx="32" cy="32" r="20" stroke="currentColor" stroke-width="3.5" fill="none" stroke-linejoin="round" stroke-linecap="round"></circle> <circle cx="32" cy="32" r="12" stroke="currentColor" stroke-width="3.5" fill="none" stroke-linejoin="round" stroke-linecap="round" stroke-width="2.5"></circle> <circle cx="32" cy="32" r="4" fill="currentColor"></circle> <path d="M 32 4 L 32 12 M 32 52 L 32 60 M 4 32 L 12 32 M 52 32 L 60 32" stroke="currentColor" stroke-width="3.5" fill="none" stroke-linejoin="round" stroke-linecap="round" stroke-width="2.5"></path></symbol>
  <symbol id="status-shield" viewBox="0 0 64 64"><circle cx="32" cy="32" r="22" stroke="currentColor" stroke-width="3.5" fill="none" stroke-linejoin="round" stroke-linecap="round" stroke-dasharray="4 3"></circle> <circle cx="32" cy="32" r="15" stroke="currentColor" stroke-width="3.5" fill="none" stroke-linejoin="round" stroke-linecap="round"></circle> <path d="M 32 22 L 32 42 M 22 32 L 42 32" stroke="currentColor" stroke-width="3.5" fill="none" stroke-linejoin="round" stroke-linecap="round" stroke-width="2"></path></symbol>
  <symbol id="status-haste" viewBox="0 0 64 64"><path d="M 24 14 L 44 32 L 24 50" stroke="currentColor" stroke-width="3.5" fill="none" stroke-linejoin="round" stroke-linecap="round" stroke-width="4"></path> <path d="M 8 18 L 20 18 M 4 32 L 18 32 M 8 46 L 20 46" stroke="currentColor" stroke-width="3.5" fill="none" stroke-linejoin="round" stroke-linecap="round" stroke-width="3"></path></symbol>
  <symbol id="status-phase" viewBox="0 0 64 64"><ellipse cx="32" cy="14" rx="6" ry="6" stroke="currentColor" stroke-width="3.5" fill="none" stroke-linejoin="round" stroke-linecap="round" stroke-dasharray="2 3"></ellipse> <path d="M 32 22 L 32 42" stroke="currentColor" stroke-width="3.5" fill="none" stroke-linejoin="round" stroke-linecap="round" stroke-dasharray="2 3"></path> <path d="M 24 30 L 40 30" stroke="currentColor" stroke-width="3.5" fill="none" stroke-linejoin="round" stroke-linecap="round" stroke-dasharray="2 3"></path> <path d="M 32 42 L 24 56 M 32 42 L 40 56" stroke="currentColor" stroke-width="3.5" fill="none" stroke-linejoin="round" stroke-linecap="round" stroke-dasharray="2 3"></path></symbol>
  <symbol id="status-bleed" viewBox="0 0 64 64"><path d="M 32 6 Q 22 26 22 38 Q 22 50 32 56 Q 42 50 42 38 Q 42 26 32 6 Z" stroke="currentColor" stroke-width="3.5" fill="none" stroke-linejoin="round" stroke-linecap="round"></path><path d="M 32 26 Q 28 36 32 46 Q 36 36 32 26" fill="currentColor"></path></symbol>
  <symbol id="status-poison" viewBox="0 0 64 64"><path d="M 32 4 Q 18 18 18 36 Q 18 54 32 60 Q 46 54 46 36 Q 46 18 32 4 Z" stroke="currentColor" stroke-width="3.5" fill="none" stroke-linejoin="round" stroke-linecap="round"></path><circle cx="26" cy="32" r="3" fill="currentColor"></circle><circle cx="38" cy="32" r="3" fill="currentColor"></circle><path d="M 24 44 Q 32 48 40 44" stroke="currentColor" stroke-width="3.5" fill="none" stroke-linejoin="round" stroke-linecap="round"></path></symbol>
  <symbol id="status-root" viewBox="0 0 64 64"><path d="M 14 8 Q 22 24 18 40 Q 14 52 22 58 M 50 8 Q 42 24 46 40 Q 50 52 42 58 M 32 8 L 32 56" stroke="currentColor" stroke-width="3.5" fill="none" stroke-linejoin="round" stroke-linecap="round"></path></symbol>
  <symbol id="status-stun" viewBox="0 0 64 64"><circle cx="32" cy="14" r="6" stroke="currentColor" stroke-width="3.5" fill="none" stroke-linejoin="round" stroke-linecap="round"></circle><circle cx="20" cy="32" r="6" stroke="currentColor" stroke-width="3.5" fill="none" stroke-linejoin="round" stroke-linecap="round"></circle><circle cx="44" cy="32" r="6" stroke="currentColor" stroke-width="3.5" fill="none" stroke-linejoin="round" stroke-linecap="round"></circle><path d="M 32 26 L 32 56" stroke="currentColor" stroke-width="3.5" fill="none" stroke-linejoin="round" stroke-linecap="round"></path></symbol>
  <symbol id="status-slow" viewBox="0 0 64 64"><circle cx="32" cy="32" r="22" stroke="currentColor" stroke-width="3.5" fill="none" stroke-linejoin="round" stroke-linecap="round"></circle><path d="M 32 20 L 32 32 L 42 36" stroke="currentColor" stroke-width="3.5" fill="none" stroke-linejoin="round" stroke-linecap="round" stroke-width="3"></path></symbol>
  <symbol id="status-blind" viewBox="0 0 64 64"><path d="M 6 32 Q 18 14 32 14 Q 46 14 58 32 Q 46 50 32 50 Q 18 50 6 32 Z" stroke="currentColor" stroke-width="3.5" fill="none" stroke-linejoin="round" stroke-linecap="round"></path><path d="M 10 10 L 54 54" stroke="currentColor" stroke-width="3.5" fill="none" stroke-linejoin="round" stroke-linecap="round" stroke-width="4"></path></symbol>
</svg>